<svg width="64" height="64" viewBox="0 0 64 64" fill="none" xmlns="http://www.w3.org/2000/svg">
<path d="M27.4595 30.6144L27.4594 30.6143L9.68482 12.8341L27.4595 30.6144ZM27.4595 30.6144C28.2264 31.3813 28.2264 32.6185 27.4595 33.3854L27.4595 33.3854M27.4595 30.6144L27.4595 33.3854M27.4595 33.3854L9.68454 51.1631C9.68452 51.1632 9.6845 51.1632 9.68448 51.1632C8.91757 51.93 7.67489 51.9299 6.90825 51.1632C6.14165 50.3963 6.14167 49.1589 6.90831 48.3921L6.90835 48.392M27.4595 33.3854L6.90835 48.392M6.90835 48.392L22.5869 32.7068L23.2936 31.9998M6.90835 48.392L23.2936 31.9998M23.2936 31.9998L22.5868 31.2929M23.2936 31.9998L22.5868 31.2929M22.5868 31.2929L6.90831 15.6105C6.9083 15.6105 6.90829 15.6105 6.90828 15.6105M22.5868 31.2929L6.90828 15.6105M6.90828 15.6105C6.14176 14.8437 6.14166 13.601 6.90797 12.8341L6.90828 15.6105ZM6.9081 12.834C6.90817 12.8339 6.90824 12.8338 6.90831 12.8338C7.67493 12.068 8.91753 12.0679 9.68443 12.8338L6.9081 12.834ZM55.7037 47.8147C56.7903 47.8147 57.6666 48.691 57.6666 49.7777C57.6666 50.8643 56.7903 51.7406 55.7037 51.7406H29.037C27.9504 51.7406 27.0741 50.8643 27.0741 49.7777C27.0741 48.691 27.9504 47.8147 29.037 47.8147H55.7037Z" stroke="#3294F8" stroke-width="2"/>
</svg>
